<?xml version="1.0" encoding="utf-8"?>
<!-- Generator: Adobe Illustrator 22.1.0, SVG Export Plug-In . SVG Version: 6.00 Build 0)  -->
<svg version="1.1" id="Layer_1" xmlns="http://www.w3.org/2000/svg" xmlns:xlink="http://www.w3.org/1999/xlink" x="0px" y="0px"
	 viewBox="0 0 24 24" style="enable-background:new 0 0 24 24;" xml:space="preserve">
<g id="Egg_1_">
</g>
<g id="Easter_Egg_1_1_">
</g>
<g id="Easter_Egg_2_1_">
</g>
<g id="Easter_Egg_3_1_">
</g>
<g id="Eggs_1_1_">
</g>
<g id="Eggs_2_1_">
</g>
<g id="Bunny_1_">
</g>
<g id="Sheep_1_">
</g>
<g id="Bell_Alarm">
</g>
<g id="Calendar">
	<g>
		<g>
			<path d="M20.5,24h-17C1.6,24,0,22.4,0,20.5v-15C0,3.6,1.6,2,3.5,2h1C4.8,2,5,2.2,5,2.5S4.8,3,4.5,3h-1C2.1,3,1,4.1,1,5.5v15
				C1,21.9,2.1,23,3.5,23h17c1.4,0,2.5-1.1,2.5-2.5v-15C23,4.1,21.9,3,20.5,3h-1C19.2,3,19,2.8,19,2.5S19.2,2,19.5,2h1
				C22.4,2,24,3.6,24,5.5v15C24,22.4,22.4,24,20.5,24z"/>
		</g>
		<g>
			<path d="M15.5,3h-7C8.2,3,8,2.8,8,2.5S8.2,2,8.5,2h7C15.8,2,16,2.2,16,2.5S15.8,3,15.5,3z"/>
		</g>
		<g>
			<path d="M23.5,8h-23C0.2,8,0,7.8,0,7.5S0.2,7,0.5,7h23C23.8,7,24,7.2,24,7.5S23.8,8,23.5,8z"/>
		</g>
		<g>
			<path d="M6.5,5C6.2,5,6,4.8,6,4.5v-4C6,0.2,6.2,0,6.5,0S7,0.2,7,0.5v4C7,4.8,6.8,5,6.5,5z"/>
		</g>
		<g>
			<path d="M17.5,5C17.2,5,17,4.8,17,4.5v-4C17,0.2,17.2,0,17.5,0S18,0.2,18,0.5v4C18,4.8,17.8,5,17.5,5z"/>
		</g>
	</g>
</g>
<g id="Tulip_1_">
</g>
<g id="Chicken_1_">
</g>
<g id="Chicken_2_1_">
</g>
<g id="Baguette_1_">
</g>
<g id="Ham_1_">
</g>
<g id="Bell_2">
</g>
<g id="Bell_3">
</g>
<g id="Bell_4">
</g>
<g id="Easter_celebration">
</g>
<g id="Egg_painting">
</g>
<g id="Easter_willow">
</g>
<g id="Daffodil">
</g>
<g id="Easter_message">
</g>
<g id="Bunny_2">
</g>
<g id="Chicken_3">
</g>
<g id="Tulip_2">
</g>
<g id="Easter_basket">
</g>
<g id="Bread_and_wine">
</g>
<g id="Sheep_2">
</g>
<g id="Candle_Light">
</g>
</svg>
